# xmcd
# Copyright (C) 1995-1998 Ti Kan
#
# Track frame offsets:
#       150
#       19298
#       48308
#       76088
#       90763
#       109815
#       149318
#       182388
#       207911
#       258149
#       281246
#       295624
#       310024
#       328417
#
# Disc length: 4535 seconds
#
# Revision: 7
# Processed by: cddbd v1.5.2PL0 Copyright (c) Steve Scherf et al.
# Submitted via: CD-Import v1.0
#
DISCID=bb11b50e
DTITLE=Frank Sinatra and Count Basie - Stadtfilter Jazz Collection
DYEAR=1900
DGENRE=
TTITLE0=King Of The Road
TTITLE1=Maybe September
TTITLE2=O.g.d.
TTITLE3=Call Me
TTITLE4=Milestones
TTITLE5=Mellow Mood
TTITLE6='round Midnight
TTITLE7=Rumpelstilzchen's Bossa
TTITLE8=Yanini
TTITLE9=The Boy Next Door
TTITLE10=Srtictly Confidential
TTITLE11=Am I Blue
TTITLE12=Maramoor Mambo
TTITLE13=I've Got A Crush On You
EXTD=
EXTT0=
EXTT1=
EXTT2=
EXTT3=
EXTT4=
EXTT5=
EXTT6=
EXTT7=
EXTT8=
EXTT9=
EXTT10=
EXTT11=
EXTT12=
EXTT13=
PLAYORDER=
